<svg width="17" height="18" viewBox="0 0 17 18" fill="none" xmlns="http://www.w3.org/2000/svg">
    <path d="M12.1667 10.6771C12 10.5938 10.9167 10.0938 10.75 10.0104C10.5833 9.92708 10.4167 9.92708 10.25 10.0938C10.0833 10.2604 9.75 10.7604 9.58333 10.9271C9.5 11.0938 9.33333 11.0938 9.16667 11.0104C8.58333 10.7604 8 10.4271 7.5 10.0104C7.08333 9.59375 6.66667 9.09375 6.33333 8.59375C6.25 8.42708 6.33333 8.26042 6.41667 8.17708C6.5 8.09375 6.58333 7.92708 6.75 7.84375C6.83333 7.76042 6.91667 7.59375 6.91667 7.51042C7 7.42708 7 7.26042 6.91667 7.17708C6.83333 7.09375 6.41667 6.09375 6.25 5.67708C6.16667 5.09375 6 5.09375 5.83333 5.09375C5.75 5.09375 5.58333 5.09375 5.41667 5.09375C5.25 5.09375 5 5.26042 4.91667 5.34375C4.41667 5.84375 4.16667 6.42708 4.16667 7.09375C4.25 7.84375 4.5 8.59375 5 9.26042C5.91667 10.5938 7.08333 11.6771 8.5 12.3438C8.91667 12.5104 9.25 12.6771 9.66667 12.7604C10.0833 12.9271 10.5 12.9271 11 12.8438C11.5833 12.7604 12.0833 12.3438 12.4167 11.8438C12.5833 11.5104 12.5833 11.1771 12.5 10.8438C12.5 10.8438 12.3333 10.7604 12.1667 10.6771ZM14.25 3.09375C11 -0.15625 5.75 -0.15625 2.5 3.09375C-0.166667 5.76042 -0.666667 9.84375 1.16667 13.0938L0 17.3438L4.41667 16.1771C5.66667 16.8438 7 17.1771 8.33333 17.1771C12.9167 17.1771 16.5833 13.5104 16.5833 8.92708C16.6667 6.76042 15.75 4.67708 14.25 3.09375ZM12 14.7604C10.9167 15.4271 9.66667 15.8438 8.33333 15.8438C7.08333 15.8438 5.91667 15.5104 4.83333 14.9271L4.58333 14.7604L2 15.4271L2.66667 12.9271L2.5 12.6771C0.5 9.34375 1.5 5.17708 4.75 3.09375C8 1.01042 12.1667 2.09375 14.1667 5.26042C16.1667 8.51042 15.25 12.7604 12 14.7604Z" fill="white"/>
</svg>